<svg id="Capa_1" data-name="Capa 1" xmlns="http://www.w3.org/2000/svg" viewBox="0 0 180 180"><defs><style>.cls-1{fill:#48a18c;}.cls-2,.cls-3{fill:#fff;}.cls-3,.cls-4{stroke:#48a18c;stroke-miterlimit:10;}.cls-3{stroke-width:2.43px;}.cls-4{fill:none;stroke-width:2.5px;}</style></defs><title>iconos-odont</title><circle class="cls-1" cx="90" cy="90" r="90"/><path class="cls-2" d="M140.61,85.06c-2.27,8.69-15.67,49-17.49,53.7-1,2.58-4.6,7.56-12,1.07-6.86-6-9.06-30.6-21.15-30.6s-14.29,24.56-21.15,30.6c-7.37,6.49-11,1.51-12-1.07-1.82-4.74-15.22-45-17.49-53.7-1.53-5.87-5.71-13.54-3.16-23.19A19.32,19.32,0,1,0,65.7,40.38C78.28,42,90,50.31,90,50.31s28.52-20.2,44.38-3.77C151,63.72,142.88,76.37,140.61,85.06Z"/><path class="cls-3" d="M74.08,56.31a19.33,19.33,0,1,1-38.66,0V56a19.33,19.33,0,0,1,38.66.35Z"/><path class="cls-4" d="M137.8,79.06s6.25-12.7-2.5-22.75"/><path class="cls-1" d="M55.21,44.9,58,52.78a.46.46,0,0,0,.3.29l7.88,2.78a.49.49,0,0,1,0,.92l-7.88,2.77a.5.5,0,0,0-.3.3l-2.77,7.88a.49.49,0,0,1-.92,0l-2.78-7.88a.46.46,0,0,0-.29-.3l-7.88-2.77a.49.49,0,0,1,0-.92l7.88-2.78a.42.42,0,0,0,.29-.29l2.78-7.88A.49.49,0,0,1,55.21,44.9Z"/><path class="cls-1" d="M119.82,109.59l1.61,4.58a.28.28,0,0,0,.18.17l4.58,1.62a.28.28,0,0,1,0,.53l-4.58,1.62a.28.28,0,0,0-.18.17l-1.61,4.58a.28.28,0,0,1-.53,0l-1.62-4.58a.26.26,0,0,0-.17-.17l-4.58-1.62a.28.28,0,0,1,0-.53l4.58-1.62a.26.26,0,0,0,.17-.17l1.62-4.58A.28.28,0,0,1,119.82,109.59Z"/></svg>