<svg id="Capa_1" data-name="Capa 1" xmlns="http://www.w3.org/2000/svg" viewBox="0 0 180 180"><defs><style>.cls-1,.cls-3{fill:#48a18c;}.cls-2{fill:#fff;}.cls-3{stroke:#48a18c;stroke-miterlimit:10;}</style></defs><title>iconos-odont</title><circle class="cls-1" cx="90" cy="90" r="90"/><path class="cls-2" d="M141.88,83.34c-2.33,8.9-16.06,50.18-17.93,55-1,2.64-4.71,7.75-12.27,1.09-7-6.19-9.29-31.36-21.68-31.36s-14.65,25.17-21.68,31.36c-7.56,6.66-11.26,1.55-12.27-1.09-1.87-4.86-15.6-46.14-17.93-55S27.5,61.46,44.52,43.85C60.77,27,90,47.72,90,47.72S119.23,27,135.49,43.85C152.5,61.46,144.19,74.43,141.88,83.34Z"/><path class="cls-3" d="M115.18,56c-2.85,3.23-8.38,5.08-13.53,6.13a58.59,58.59,0,0,1-23.3,0C73.2,61.08,67.67,59.23,64.82,56c-6.22-7-18-.2-12.16,8.5s4.24,13.75,3,22.67-3,28.73,2.16,38.16c5.09,9.19-5.29-53.09,29.42-52.66q2.76,0,5.52,0c34.71-.43,24.33,61.85,29.42,52.66,5.21-9.43,3.41-29.25,2.16-38.16s-2.8-14,3-22.67S121.39,49,115.18,56Zm10.25,8c-4.67,4.35-4,18.34-2.8,23.31s1.56,30.77,0,33.88,1.42-51.44-28.93-50.7c-2.47.07-4.93.07-7.4,0-30.35-.74-27.44,53.69-28.93,50.7s-1.25-28.9,0-33.88,1.86-19-2.8-23.31,3.11-12.74,6.84-7.15c1.51,2.26,6.47,4.22,11.85,5.75a61.24,61.24,0,0,0,33.48,0c5.38-1.53,10.34-3.49,11.85-5.75C122.32,51.29,130.09,59.68,125.43,64Z"/><path class="cls-2" d="M76.47,66.14c1.26.32,2.51.6,3.71.87C79,66.75,77.73,66.46,76.47,66.14Z"/></svg>