<svg id="Capa_1" data-name="Capa 1" xmlns="http://www.w3.org/2000/svg" viewBox="0 0 180 180"><defs><style>.cls-1{fill:#48a18c;}.cls-2,.cls-3{fill:#fff;}.cls-3{opacity:0.5;}.cls-4{fill:none;stroke:#48a18c;stroke-miterlimit:10;}</style></defs><title>iconos-odont</title><circle class="cls-1" cx="90" cy="90" r="90"/><path class="cls-2" d="M81.87,105.9c-1.18,4.52-8.15,25.46-9.1,27.93-.51,1.34-2.39,3.93-6.23.55-3.57-3.14-4.71-15.91-11-15.91s-7.43,12.77-11,15.91c-3.83,3.38-5.71.79-6.23-.55-.94-2.47-7.91-23.41-9.09-27.93s-5.39-11.1,3.24-20c8.25-8.55,23.08,2,23.08,2s14.84-10.51,23.08-2C87.26,94.8,83,101.38,81.87,105.9Z"/><path class="cls-3" d="M158.69,116.93l0,20.83a7.36,7.36,0,0,1-2.31,5.34c-58.48,55.4-118.7,11-132,0a7.36,7.36,0,0,1-2.68-5.7l0-4.74q0-8-.08-16a6.67,6.67,0,0,1,.68-3.11q1.91-3.62,7.51-2.47c.89-.43,1.64,0,2.39.41A51.47,51.47,0,0,0,54,117.1a46.54,46.54,0,0,0,18-3.55c1.89-.76,3.8-1.25,5.64-2.13.36-.17,2.44-.67,3-.89,5.78-2.06,11.37-1.44,17,1.4a54,54,0,0,0,19,5.68c8,.82,15.53-.8,22.89-3.66a35.1,35.1,0,0,0,4.06-1.81,24.18,24.18,0,0,1,6.44-2.43A7.29,7.29,0,0,1,158.69,116.93Z"/><path class="cls-2" d="M115.24,149.21l11.6-1.66-.47,4a1.91,1.91,0,0,1-1.9,1.69h-7.09a1.92,1.92,0,0,1-1.91-1.73Z"/><polygon class="cls-2" points="127.32 143.44 126.92 146.88 115.17 148.56 114.85 145.23 127.32 143.44"/><polygon class="cls-2" points="127.79 139.45 127.39 142.78 114.79 144.58 114.47 141.36 127.79 139.45"/><polygon class="cls-2" points="128.41 134.01 127.87 138.78 114.41 140.71 113.94 136.08 128.41 134.01"/><polygon class="cls-2" points="129.06 128.57 128.5 133.34 113.89 135.42 113.44 130.81 129.06 128.57"/><polygon class="cls-2" points="112.94 125.89 129.66 123.5 129.14 127.9 113.37 130.15 112.94 125.89"/><polygon class="cls-2" points="130.13 119.45 129.74 122.82 112.89 125.24 112.57 121.97 130.13 119.45"/><polygon class="cls-2" points="130.56 115.78 130.44 116.74 130.21 118.78 112.5 121.31 112.22 118.4 130.56 115.78"/><polygon class="cls-2" points="131.05 111.64 130.64 115.11 112.14 117.76 112.07 116.92 111.82 114.38 131.05 111.64"/><path class="cls-2" d="M131.06,111l-19.3,2.76-.23-2.32a1.91,1.91,0,0,1,1.9-2.1h15.74A1.9,1.9,0,0,1,131.06,111Z"/><path class="cls-2" d="M129.75,107.23H112.88a.78.78,0,0,1-.69-1.13l2.41-4.86a.78.78,0,0,1,.7-.43h12a.78.78,0,0,1,.7.43l2.42,4.86A.78.78,0,0,1,129.75,107.23Z"/><path class="cls-2" d="M147.76,68.54c-.18.68-1.54,4.92-3.15,9.91-19.33,7.09-35.92,4-47-2.22-1.36-4.19-2.39-7.43-2.46-7.69-1.18-4.52-5.39-11.1,3.24-20,8.25-8.54,23.09,2,23.09,2s14.83-10.51,23.08-2C153.15,57.44,148.94,64,147.76,68.54Z"/><path class="cls-2" d="M123.16,50.47l0,.05c-.14-.39-.28-.76-.41-1.11C122.76,49.48,122.94,49.88,123.16,50.47Z"/><path class="cls-4" d="M125.35,47.49s-9.5,6.11-12.5,9.25"/></svg>