<svg id="Capa_1" data-name="Capa 1" xmlns="http://www.w3.org/2000/svg" viewBox="0 0 180 180"><defs><style>.cls-1{fill:#48a18c;}.cls-2{fill:#fff;}</style></defs><title>iconos-odont</title><circle class="cls-1" cx="90" cy="90" r="90"/><path class="cls-2" d="M141.88,83.34c-2.33,8.9-16.06,50.18-17.93,55-1,2.64-4.71,7.75-12.27,1.09-7-6.19-9.29-31.36-21.68-31.36s-14.65,25.17-21.68,31.36c-7.56,6.66-11.26,1.55-12.27-1.09-1.87-4.86-15.6-46.14-17.93-55S27.5,61.46,44.52,43.85C60.77,27,90,47.72,90,47.72S119.23,27,135.49,43.85C152.5,61.46,144.19,74.43,141.88,83.34Z"/><path class="cls-1" d="M127.34,64.5c-5.8,8.71-4.24,13.75-3,22.67s3,28.73-2.16,38.16S128,69,90,72.83v-2c34.28-5.42,31.08,53.46,32.63,50.35s1.25-28.9,0-33.88-1.86-19,2.8-23.31-3.11-12.74-6.84-7.15S90,66.2,90,66.2V63.5s19-.45,25.18-7.5S133.14,55.8,127.34,64.5Z"/><path class="cls-2" d="M76.47,66.14c1.26.32,2.51.6,3.71.87C79,66.75,77.73,66.46,76.47,66.14Z"/><path class="cls-1" d="M52.66,64.5c5.8,8.71,4.24,13.75,3,22.67s-3,28.73,2.16,38.16S52,69,90,72.83v-2c-34.28-5.42-31.08,53.46-32.63,50.35s-1.25-28.9,0-33.88,1.86-19-2.8-23.31,3.11-12.74,6.84-7.15S90,66.2,90,66.2V63.5S71,63.05,64.82,56,46.86,55.8,52.66,64.5Z"/></svg>