<svg id="Capa_1" data-name="Capa 1" xmlns="http://www.w3.org/2000/svg" viewBox="0 0 180 180"><defs><style>.cls-1{fill:#48a18c;}.cls-2{fill:#fff;}.cls-3{fill:#479884;}.cls-4{fill:none;stroke:#479884;stroke-miterlimit:10;stroke-width:2.49px;}</style></defs><title>iconos-odont</title><path class="cls-1" d="M180,90A89.93,89.93,0,1,1,105.71,1.37,90,90,0,0,1,180,90Z"/><path class="cls-2" d="M142.05,83.31c-2.33,8.94-16.12,50.35-18,55.24-1,2.64-4.72,7.76-12.31,1.09-7-6.21-9.32-31.46-21.75-31.46s-14.69,25.25-21.75,31.46c-7.58,6.67-11.3,1.55-12.31-1.09-1.87-4.89-15.66-46.3-18-55.24S27.3,61.37,44.36,43.69C60.67,26.8,90,47.58,90,47.58s29.33-20.78,45.64-3.89C152.71,61.37,144.38,74.38,142.05,83.31Z"/><rect class="cls-3" x="75.97" y="67.54" width="28.07" height="26.51" rx="5.15" ry="5.15"/><path class="cls-4" d="M35.52,75.67S72.22,81.58,90,80.8"/><path class="cls-4" d="M144.48,75.67S107.78,81.58,90,80.8"/><rect class="cls-2" x="81.03" y="71.6" width="2.49" height="18.4" rx="1.25" ry="1.25"/><rect class="cls-2" x="96.47" y="71.6" width="2.49" height="18.4" rx="1.25" ry="1.25"/><rect class="cls-2" x="88.75" y="67.05" width="2.49" height="17.92" rx="1.23" ry="1.23" transform="translate(166.02 -13.99) rotate(90)"/><rect class="cls-2" x="88.75" y="76.62" width="2.49" height="17.92" rx="1.23" ry="1.23" transform="translate(175.58 -4.42) rotate(90)"/><path d="M90.43,59a.61.61,0,0,1-.07.1c-.27-.78-.54-1.49-.79-2.19C89.64,57,90,57.8,90.43,59Z"/></svg>