<svg id="Capa_1" data-name="Capa 1" xmlns="http://www.w3.org/2000/svg" viewBox="0 0 180 180"><defs><style>.cls-1{fill:#48a18c;}.cls-2,.cls-3{fill:#fff;}.cls-3{opacity:0.5;}</style></defs><title>iconos-odont</title><circle class="cls-1" cx="90" cy="90" r="90"/><path class="cls-1" d="M55.56,94.1c-.13-.38-.27-.72-.38-1.06.06.13.22.5.42,1Z"/><path class="cls-2" d="M78.46,83.33c-8.25-8.54-23.08,2-23.08,2s-14.84-10.51-23.09-2c-8.63,8.94-4.42,15.52-3.24,20,.26,1,.82,2.84,1.52,5.1a4.61,4.61,0,0,1,1.48.56,51.7,51.7,0,0,0,21.82,5.55,46.69,46.69,0,0,0,18-3.55c1.89-.76,3.8-1.25,5.64-2.13.33-.15,2-.58,2.83-.82.65-2.08,1.15-3.76,1.4-4.71C82.88,98.85,87.09,92.27,78.46,83.33ZM55.56,91.1c-.13-.38-.27-.72-.38-1.06.06.13.22.5.42,1Z"/><path class="cls-2" d="M55.56,91.1c-.13-.38-.27-.72-.38-1.06.06.13.22.5.42,1Z"/><path class="cls-2" d="M55.6,91.06l0,0c-.13-.38-.27-.72-.38-1.06C55.24,90.17,55.4,90.54,55.6,91.06Z"/><path class="cls-3" d="M158.52,114.41l0,20.83a7.52,7.52,0,0,1-2.32,5.34c-59.42,58.24-119.39,13.1-132,0a8.3,8.3,0,0,1-2.67-5.7l0-4.75q0-8-.07-16a6.66,6.66,0,0,1,.67-3.11q1.91-3.63,7.52-2.47a1.63,1.63,0,0,1,.9-.16,4.61,4.61,0,0,1,1.48.56,51.7,51.7,0,0,0,21.82,5.55,46.69,46.69,0,0,0,18-3.55c1.89-.76,3.8-1.25,5.64-2.13.33-.15,2-.58,2.83-.82l.22-.07c5.77-2.06,11.37-1.44,17,1.4a54,54,0,0,0,19,5.67c8,.83,15.52-.79,22.89-3.66a35.66,35.66,0,0,0,4.05-1.8,23.78,23.78,0,0,1,6.45-2.43A7.28,7.28,0,0,1,158.52,114.41Z"/><path class="cls-2" d="M142,77.31c-.34,4-3.19,22.52-3.63,24.73-.24,1.19-1.45,3.63-5.15,1.35-3.44-2.12-6.22-12.67-11.5-11.77s-4.4,11.77-7,14.92c-2.73,3.38-4.68,1.47-5.3.42-1.14-1.93-10-18.5-11.62-22.12s-6.11-8.54-.15-17.27c5.7-8.35,19.64-1.65,19.64-1.65S128.23,55,136.37,61C144.89,67.23,142.3,73.35,142,77.31Z"/><path class="cls-2" d="M118.3,70.71l0,.05c-.17-.31-.34-.59-.5-.87C117.82,69.94,118,70.25,118.3,70.71Z"/><path class="cls-3" d="M149.76,49.8a10.45,10.45,0,0,0-7.58-9c-2.69-.91-5.48-1.57-8.22-2.34L125.11,36l.23-.45a16.14,16.14,0,0,0,1.83-11c-.76-4.1-1.55-8.21-2.34-12.31-.37-2-.48-2-2.5-1.71h-.07l-12.54,2.26-11,1.94c-1.68.3-3.36.6-5,.93a1.06,1.06,0,0,0-1,1.25c.17,1.16.36,2.31.54,3.46.49,3.05,1,6.08,1.45,9.13a16.37,16.37,0,0,0,3.35,8.05c.66.82,1.39,1.57,2.11,2.37l-.73.49c-4.59,3.06-9.2,6.1-13.78,9.18a10.86,10.86,0,0,0-4.41,12.05C83.06,67.2,85,72.71,87,78.22A4.25,4.25,0,0,0,90.13,81,5,5,0,0,0,94,80.46a3.21,3.21,0,0,0,.89-2.86c-.3-1.85-1.35-11-1.35-11l-.14,0c-.18-1.31-.43-2.61-.55-3.93a4.65,4.65,0,0,1,2.25-4.48c3-2,6-4.07,9-6.12,3.16-2.16,6.31-4.33,9.49-6.46a1.34,1.34,0,0,1,1,0c4.92,1.43,9.82,2.89,14.73,4.34l6.4,1.88a4.79,4.79,0,0,1,3.61,3.88c.23,1.21.39,2.43.58,3.68,0,0,0,0,0,0l0,.08,0,.12a.64.64,0,0,1,0,.07l0,.08c.44,1.71,2.26,8.83,2.52,10.5a3.83,3.83,0,0,0,1,2.45,1.74,1.74,0,0,1,.23,0A4.82,4.82,0,0,0,149.66,68c0-3.7.12-7.4.16-11.11A52.39,52.39,0,0,0,149.76,49.8ZM110.92,34.63a7.25,7.25,0,1,1,.55-14.49,7.25,7.25,0,0,1-.55,14.49Zm36.55,31.06c0,.85-.05,1.71-.1,2.56a2.5,2.5,0,0,1-2.81,2.2,1.14,1.14,0,0,1-.7-.75c-.45-2.52-.84-5.06-1.24-7.59-.38-2.37-.67-4.76-1.15-7.12a6.76,6.76,0,0,0-5-5.39c-5.68-1.69-11.37-3.33-17.06-5-1-.29-2-.56-3-.84v-.19c1.19-.81,2.43-1.56,3.57-2.43s2.25-1.85,3.33-2.84a.85.85,0,0,1,.91-.29c5.72,1.62,11.46,3.2,17.17,4.84a8.65,8.65,0,0,1,6.23,8.26C147.65,56,147.54,60.83,147.47,65.69Z"/><path class="cls-1" d="M103.79,27.36a7.21,7.21,0,0,1,7.68-7.22,7.25,7.25,0,0,1-.55,14.49A7.27,7.27,0,0,1,103.79,27.36Zm7.24,5a5,5,0,0,0,5-4.94,5,5,0,1,0-10,0A5,5,0,0,0,111,32.35Z"/><path class="cls-3" d="M111,32.35a5,5,0,0,1-5-5,5,5,0,1,1,10,0A5,5,0,0,1,111,32.35Zm3-7.46a4.21,4.21,0,0,0-.84-.93,1,1,0,0,0-1.27.31q-1.8,2.41-3.55,4.86a1.06,1.06,0,0,0,0,1.32,1,1,0,0,0,1.28.34,2,2,0,0,0,.78-.71Q112,28,113.57,25.8A7.49,7.49,0,0,0,114,24.89Z"/><path class="cls-1" d="M114,24.89a7.49,7.49,0,0,1-.46.91q-1.53,2.14-3.09,4.28a2,2,0,0,1-.78.71,1,1,0,0,1-1.28-.34,1.06,1.06,0,0,1,0-1.32q1.75-2.44,3.55-4.86a1,1,0,0,1,1.27-.31A4.21,4.21,0,0,1,114,24.89Z"/></svg>