<svg id="Capa_1" data-name="Capa 1" xmlns="http://www.w3.org/2000/svg" viewBox="0 0 180 180"><defs><style>.cls-1{fill:#48a18c;}.cls-2{fill:#fff;}.cls-3{fill:#479884;}</style></defs><title>iconos-odont</title><circle class="cls-1" cx="90" cy="89.98" r="90"/><path class="cls-2" d="M142.33,83.25c-2.35,9-16.2,50.62-18.09,55.53-1,2.66-4.75,7.81-12.37,1.1-7.1-6.25-9.37-31.63-21.87-31.63s-14.77,25.38-21.87,31.63c-7.62,6.71-11.36,1.56-12.37-1.1C53.87,133.87,40,92.24,37.67,83.25S27,61.19,44.12,43.42C60.51,26.43,90,47.33,90,47.33s29.49-20.9,45.88-3.91C153,61.19,144.67,74.27,142.33,83.25Z"/><path class="cls-3" d="M72,92a32.87,32.87,0,0,0,38,0c2-1.39.08-4.65-1.89-3.24a29.31,29.31,0,0,1-34.22,0c-2-1.4-3.84,1.85-1.89,3.24Z"/><path class="cls-3" d="M75.3,85.33,68,92.79c-1.69,1.73,1,4.38,2.65,2.66L78,88c1.69-1.72-1-4.38-2.66-2.65Z"/><path class="cls-3" d="M55.83,70C62.56,65.6,71.71,67,78.61,70c2.18,1,4.09-2.26,1.89-3.24-8.09-3.59-18.66-5.18-26.56,0-2,1.32-.13,4.57,1.89,3.24Z"/><path class="cls-3" d="M103.39,70c6.72-4.41,15.88-3.06,22.78,0,2.18,1,4.09-2.26,1.89-3.24-8.1-3.59-18.66-5.18-26.56,0-2,1.32-.13,4.57,1.89,3.24Z"/></svg>