<svg id="Capa_1" data-name="Capa 1" xmlns="http://www.w3.org/2000/svg" viewBox="0 0 180 180"><defs><style>.cls-1{fill:#48a18c;}.cls-2,.cls-3{fill:#fff;}.cls-3,.cls-4{stroke:#48a18c;stroke-miterlimit:10;}.cls-3{stroke-width:2.46px;}.cls-4{fill:none;stroke-width:2.53px;}</style></defs><title>iconos-odont</title><circle class="cls-1" cx="90" cy="90" r="90"/><path class="cls-2" d="M141.29,83.9c-2.3,8.81-15.88,49.61-17.73,54.43-1,2.6-4.65,7.65-12.13,1.07-7-6.12-9.18-31-21.43-31s-14.48,24.88-21.43,31c-7.47,6.58-11.14,1.53-12.13-1.07C54.59,133.51,41,92.71,38.71,83.9c-1.55-5.94-5.79-13.71-3.2-23.5A19.59,19.59,0,1,0,65.37,38.63C78.13,40.29,90,48.69,90,48.69s28.9-20.47,45-3.82C151.79,62.28,143.58,75.1,141.29,83.9Z"/><path class="cls-3" d="M73.87,54.77a19.59,19.59,0,1,1-39.18,0v-.35a19.59,19.59,0,0,1,39.18.35Z"/><rect class="cls-1" x="52.43" y="42.48" width="3.69" height="24.58" rx="1.84" ry="1.84"/><rect class="cls-1" x="52.43" y="42.48" width="3.69" height="24.58" rx="1.84" ry="1.84" transform="translate(-0.49 109.05) rotate(-90)"/><path class="cls-4" d="M138.44,77.83s6.33-12.87-2.53-23.06"/></svg>