<svg id="Capa_1" data-name="Capa 1" xmlns="http://www.w3.org/2000/svg" viewBox="0 0 461.5 125.9"><defs><style>.cls-1{fill:#fff;}.cls-2{fill:#a8a8a8;}</style></defs><title>plan</title><path class="cls-1" d="M57.75,0C21.83,0,0,25,0,62.75,0,97.41,15.17,125.5,57.75,125.5c42.75,0,56.14-28.13,57.75-62.75C117.17,26.83,97.5,0,57.75,0ZM88.58,62.75c-.86,24.46-8,44.33-30.81,44.33S27,87.23,27,62.75c0-26.67,11.64-44.33,30.8-44.33C79,18.42,89.47,37.37,88.58,62.75Z"/><path class="cls-2" d="M160.1,58.11a14.43,14.43,0,0,0-3.54,5.56h0a7.77,7.77,0,0,1,.31-.8l0-.09,0-.1c.08-.21.18-.41.28-.61a3.72,3.72,0,0,1,.21-.39q.12-.26.27-.51l.13-.21c.13-.21.26-.42.4-.62a.76.76,0,0,1,.08-.11,6.62,6.62,0,0,1,.46-.62,1.34,1.34,0,0,1,.11-.14l.35-.43c.1-.12.2-.23.31-.34S159.9,58.3,160.1,58.11Z"/><path class="cls-2" d="M183.72,63.67h0a14.44,14.44,0,0,0-3.6-5.61A14.08,14.08,0,0,1,183.72,63.67Z"/><rect class="cls-1" x="280.25" y="36.41" width="26" height="86.84"/><circle class="cls-1" cx="293.25" cy="13.13" r="13.12"/><path class="cls-1" d="M402,62.75v60.5H384a7.21,7.21,0,0,1-7.21-7.21V68.85c0-10.61-5.93-15-14.5-14.47-8,.5-14.48,6.47-14.5,14.47v54.4h-25.5V36.41H336a11.79,11.79,0,0,1,11.79,11.8V50a19.18,19.18,0,0,1,6-7.5c4.35-3.42,11.52-6.61,23-6.09a24.5,24.5,0,0,1,15.76,6.09c.36.32.71.66,1.05,1C401.24,51.31,402,62.75,402,62.75Z"/><path class="cls-1" d="M441.83,98.06a7.77,7.77,0,0,0,7.77,7.77h11.9V122a110.38,110.38,0,0,1-26.31,2.44c-7.85-.16-14.64-6-17.37-12.94a18.45,18.45,0,0,1-1.28-5.67c0-.4,0-.8,0-1.21V13.12h18.9a6.43,6.43,0,0,1,6.43,6.43V37.83H461.5V56.19H441.83Z"/><path class="cls-1" d="M57.8,26.25a36.55,36.55,0,0,1-4.55,29.94c-9.75,15.06-12.82,25.06,3,43.06,0,0-2.72-19.75,7-27S78.1,44.25,57.8,26.25Z"/><path class="cls-1" d="M263.25,62.75v60.5H247.49a8.74,8.74,0,0,1-8.74-8.74V69.21a14.14,14.14,0,0,0-6.75-12,14.48,14.48,0,0,0-15.25,0,14.13,14.13,0,0,0-6.75,12v54H184.5v-55a13.87,13.87,0,0,0-.78-4.62,14.08,14.08,0,0,0-3.63-5.61c-.23-.23-.47-.44-.71-.64l-.31-.25h0c-.11-.1-.22-.18-.34-.27l-.07,0a5.36,5.36,0,0,0-.49-.34,14.29,14.29,0,0,0-14.68-.83,13.7,13.7,0,0,0-1.9,1.18l-.4.31h0l-.37.31c-.24.2-.47.41-.7.63s-.39.39-.58.59-.21.22-.31.34l-.35.43a1.34,1.34,0,0,0-.11.14,6.62,6.62,0,0,0-.46.62.76.76,0,0,0-.08.11c-.14.2-.27.41-.4.62l-.13.21q-.15.26-.27.51a3.72,3.72,0,0,0-.21.39c-.1.2-.2.4-.28.61l0,.1,0,.09a7.77,7.77,0,0,0-.31.8,13.87,13.87,0,0,0-.78,4.62v55h-25.5v-85H145.4A10.37,10.37,0,0,1,155.74,48c1.45-1.37,2.88-2.59,4.29-3.68,17.68-13.72,31.84-6.79,39.76,0a40.39,40.39,0,0,1,7,7.64,29.42,29.42,0,0,1,6.1-7.64,30.38,30.38,0,0,1,22.65-7.9c8.6.44,14.77,3.68,19.09,7.9a29.19,29.19,0,0,1,2.91,3.35,30.75,30.75,0,0,1,4.4,8.48A26,26,0,0,1,263.25,62.75Z"/></svg>