<svg id="Capa_1" data-name="Capa 1" xmlns="http://www.w3.org/2000/svg" viewBox="0 0 180 180"><defs><style>.cls-1{fill:#48a18c;}.cls-2{fill:#fff;}</style></defs><title>iconos-odont</title><circle class="cls-1" cx="90" cy="90" r="90"/><path class="cls-2" d="M141,83.45c-2.28,8.76-15.79,49.32-17.62,54.11-1,2.59-4.63,7.6-12.06,1.07-6.91-6.09-9.13-30.82-21.31-30.82s-14.4,24.73-21.31,30.82c-7.43,6.53-11.07,1.52-12.06-1.07C54.8,132.77,41.29,92.21,39,83.45S28.57,62,45.29,44.64c16-16.56,44.71,3.8,44.71,3.8s28.73-20.36,44.71-3.8C151.43,62,143.27,74.7,141,83.45Z"/><path class="cls-1" d="M97.1,82.91c21.79.93,66.78-6.1,66.78-6.1V71.94s-45,7-66.78,6.1Z"/><rect class="cls-1" x="73.3" y="64" width="33.39" height="31.54" rx="6.13" ry="6.13"/><path class="cls-1" d="M82.9,82.91c-21.79.93-66.78-6.1-66.78-6.1V71.94s45,7,66.78,6.1Z"/><rect class="cls-2" x="79.33" y="68.83" width="2.97" height="21.89" rx="1.48" ry="1.48"/><rect class="cls-2" x="97.7" y="68.82" width="2.97" height="21.89" rx="1.48" ry="1.48"/><rect class="cls-2" x="88.52" y="63.42" width="2.97" height="21.32" rx="1.46" ry="1.46" transform="translate(164.08 -15.92) rotate(90)"/><rect class="cls-2" x="88.52" y="74.8" width="2.97" height="21.32" rx="1.46" ry="1.46" transform="translate(175.46 -4.54) rotate(90)"/></svg>