<svg id="Capa_1" data-name="Capa 1" xmlns="http://www.w3.org/2000/svg" viewBox="0 0 360.46 142.09"><defs><style>.cls-1{fill:#fff;}</style></defs><title>plan</title><path class="cls-1" d="M44.25,30.24C17.5,30.24,0,50,0,74.26s16.75,44,44.25,44c24.44,0,44.25-16.29,44.25-44C88.5,50,71.5,30.24,44.25,30.24Zm0,68.17c-12.46,0-22.56-10.81-22.56-24.15s10.1-24.15,22.56-24.15S66.79,60.93,66.79,74.26,56.69,98.41,44.23,98.41Z"/><path class="cls-1" d="M360,82a58.09,58.09,0,0,0,.51-7.83,49.32,49.32,0,0,0-.94-9.67c-3.94-19.87-20-34.42-42-34.42a44.6,44.6,0,0,0,0,89.19c17.4,0,32.12-8.75,38.92-24.36l-19.28-7.11A21.54,21.54,0,0,1,296.61,82ZM317.25,49a21.33,21.33,0,0,1,20.52,15.5h-41A21.33,21.33,0,0,1,317.25,49Z"/><line class="cls-1" x1="358.75" y1="95.74" x2="356.47" y2="94.9"/><line class="cls-1" x1="337.19" y1="87.79" x2="335.92" y2="87.32"/><path class="cls-1" d="M243,9.24V39.29a39.81,39.81,0,0,0-24.78-8.7c-27.8,0-41.37,19.55-41.37,43.67s13.4,43.67,41.37,43.67a39.87,39.87,0,0,0,25.44-9.23l4.84,6.54h16V0Zm-22.48,88C208.1,97.28,198,87,198,74.26s10.07-23,22.49-23c14.56,0,22.48,10.31,22.48,23S235.42,97.28,220.52,97.28Z"/><path class="cls-1" d="M179.73,128.8c-12,8.26-28.64,13.38-47.06,13.38-18.86,0-35.87-5.37-47.91-14l11-16.38c10,6.56,22.86,10.52,36.92,10.52a67.68,67.68,0,0,0,36-10Z"/><path class="cls-1" d="M147.94,53.43l-2.78-.61"/><path class="cls-1" d="M169.25,78.63c0,.54,0,1.08-.05,1.62a18.52,18.52,0,0,1-1.48,5.57,17.57,17.57,0,0,1-2.05,3.79c-6.21,8.7-13,12.35-22.24,14.74a42.71,42.71,0,0,1-10.91,1.4c-20.89,0-29.28-8.29-36.85-20.72l2.46-1.45,10.46-6.18,5.34-3.15a12.54,12.54,0,0,0,3.26,6.13c2.9,3.09,8.3,6.1,18.29,5.59,13.49-.68,17.37-12.37,2.87-15.25C128.88,68.85,123.09,67.63,120,67l-2.65-.59-1.09-.23-.24-.07a22.19,22.19,0,0,1-2.15-.64l-.38-.13-.09,0,0,0a37.74,37.74,0,0,1-7.35-3.18,1.33,1.33,0,0,1-.19-.14,25.47,25.47,0,0,1-2.42-2c-.53-.49-1-1-1.54-1.55-.25-.27-.49-.54-.72-.82s-.46-.56-.68-.85-.44-.58-.65-.88-.41-.6-.61-.9-.39-.62-.57-.93-.22-.39-.33-.58L98.12,53c-1.86-3.54-2.37-7.44-2-12.08,0-.22,0-.46,0-.71,2.72-17.77,17.64-25.73,35.38-25.81h.26c1.1,0,2.19,0,3.28.14,13.35,1.07,26,8.52,32.18,19.69l-1.47.91-16.4,10.1h0l-.95-1.55a19.84,19.84,0,0,0-17.87-9.84c-13.5.5-17.37,12.37-2.87,15.24,9.13,1.81,14.84,3,18,3.71l2.07.48h.05l2.61.6.08,0a26,26,0,0,1,15.85,12.87A25.16,25.16,0,0,1,169.25,78.63Z"/></svg>