<svg id="Capa_1" data-name="Capa 1" xmlns="http://www.w3.org/2000/svg" viewBox="0 0 180 180"><defs><style>.cls-1{fill:#48a18c;}.cls-2,.cls-3{fill:#fff;}.cls-3{opacity:0.5;}.cls-4{fill:none;stroke:#48a18c;stroke-miterlimit:10;stroke-width:2.53px;}</style></defs><title>iconos-odont</title><circle class="cls-1" cx="90" cy="90.38" r="90"/><path class="cls-2" d="M142.22,83.76c-2.34,9-16.17,50.51-18,55.41-1,2.65-4.74,7.79-12.35,1.09C104.74,134,102.47,108.7,90,108.7S75.26,134,68.18,140.26c-7.61,6.7-11.34,1.56-12.35-1.09-1.88-4.9-15.71-46.44-18-55.41S27.1,61.75,44.22,44c16.36-17,45.78,3.9,45.78,3.9s29.42-20.85,45.78-3.9C152.9,61.75,144.55,74.8,142.22,83.76Z"/><path class="cls-3" d="M171.45,98.61c-1.8,41.17-37.57,74-81.45,74s-79.65-32.85-81.45-74a3.11,3.11,0,0,1,2.25-3.13,3.08,3.08,0,0,1,.86-.12h6.11v0h0c.75.36,16.94.54,19.47,13a35.11,35.11,0,0,0,3.15,9.75C42,121,43.3,121,43.3,121l3.19,8.82v0a67.32,67.32,0,0,1,3.73,9.59c3.58,11.92,19.25,11.5,23.58.25,2.35-6.09,5.21-15.28,7.83-19.25,0,0,.48-.74.69-1a9.73,9.73,0,0,1,15.49.1c.19.26.37.52.54.8,2.63,4,5.45,13.22,7.83,19.38,4.33,11.25,20,11.67,23.58-.25a67.32,67.32,0,0,1,3.73-9.59v0L136.7,121s1.29,0,2.88-2.89a35.11,35.11,0,0,0,3.15-9.75c2.53-12.45,18.72-12.63,19.47-13t0,0h6.11a3.08,3.08,0,0,1,.86.12A3.11,3.11,0,0,1,171.45,98.61Z"/><path class="cls-4" d="M138.16,77.71s6.33-12.88-2.53-23.06"/></svg>