<svg id="Capa_1" data-name="Capa 1" xmlns="http://www.w3.org/2000/svg" viewBox="0 0 180 180"><defs><style>.cls-1{fill:#48a18c;}.cls-2{fill:#fff;}</style></defs><title>iconos-odont</title><circle class="cls-1" cx="90" cy="90" r="90"/><path class="cls-2" d="M139.32,80.2c-.52,2-1.63,5.66-3.06,10.18H105.19V69.1H77.35V90.38H43.74c-1.43-4.52-2.54-8.2-3.06-10.18-2.2-8.46-10.09-20.79,6.08-37.54C62.21,26.65,90,46.34,90,46.34s27.79-19.69,43.24-3.68C149.41,59.41,141.52,71.74,139.32,80.2Z"/><path class="cls-2" d="M136.26,97.31c-4.66,14.77-12.63,38.6-14,42.15-1,2.51-4.48,7.36-11.66,1-6.69-5.88-8.83-29.8-20.61-29.8s-13.92,23.92-20.61,29.8c-7.18,6.33-10.71,1.48-11.66-1-1.36-3.55-9.33-27.38-14-42.15h37.9l1.88-20.48H99.28l1.66,20.48Z"/><rect class="cls-2" x="79.79" y="93.04" width="23.22" height="2.66" rx="1.33" ry="1.33"/><rect class="cls-2" x="79.79" y="88.65" width="23.22" height="2.66" rx="1.33" ry="1.33"/><rect class="cls-2" x="79.79" y="84.27" width="23.22" height="2.66" rx="1.33" ry="1.33"/><rect class="cls-2" x="80.98" y="79.89" width="20.86" height="2.66" rx="1.26" ry="1.26"/><rect class="cls-2" x="82.45" y="75.5" width="17.9" height="2.66" rx="1.17" ry="1.17"/></svg>